<svg version='1.0'
    xmlns='http://www.w3.org/2000/svg' width="370.61008" height="72.546165" viewBox="0 0 370.61008 72.546165">
    <g transform="translate(-6.4137747,-6.4695217)">
        <path style="stroke-width:1.33333"
            d="m 45.956821,78.350506 c -4.546469,0.305414 -10.167117,0.06587 -12.490331,-0.532338 -2.323213,-0.5982 -6.879322,-2.643745 -10.124688,-4.545656 -3.245365,-1.90191 -7.598218,-5.683628 -9.673006,-8.403814 -2.074788,-2.720188 -4.5423435,-7.09992 -5.4834555,-9.732736 -0.941112,-2.632818 -1.737448,-8.719134 -1.769636,-13.525148 -0.04554,-6.798732 0.70433,-10.269056 3.378479,-15.635374 1.8903525,-3.793442 5.2704705,-8.439928 7.5113735,-10.325524 2.240904,-1.885596 6.544253,-4.722565 9.562997,-6.3043763 4.291539,-2.248749 7.815063,-2.876018 16.155294,-2.876018 8.533366,0 11.866648,0.617278 16.666666,3.086441 3.3,1.6975433 7.703566,4.6704293 9.785702,6.6064163 2.082136,1.935987 4.647544,5.169976 5.700908,7.186643 l 1.915204,3.666666 h -6.742754 c -4.815608,0 -6.96598,-0.581721 -7.523786,-2.035342 -0.42957,-1.119438 -3.459714,-3.605152 -6.733654,-5.52381 -4.345968,-2.546906 -7.816122,-3.488466 -12.856873,-3.488466 -4.314879,0 -8.899561,1.018333 -12.2245,2.715262 -2.926136,1.493395 -6.347364,3.851068 -7.602729,5.239275 -1.255366,1.388205 -3.205366,4.73278 -4.333334,7.432388 -1.127968,2.699607 -2.05085,7.238115 -2.05085,10.085571 0,2.847457 0.691772,7.216728 1.537269,9.709492 0.845499,2.492764 2.696028,6.195881 4.112287,8.229149 1.41626,2.033269 4.774488,4.796657 7.46273,6.140863 2.688243,1.344205 6.918959,2.83187 9.401594,3.305922 2.482633,0.474054 6.982633,0.205359 10,-0.597098 3.017365,-0.802456 7.43675,-2.934722 9.820854,-4.738367 2.384106,-1.803645 5.234106,-5.018543 6.333334,-7.144216 1.099229,-2.125675 1.998598,-4.194659 1.998598,-4.597743 0,-0.403084 -6.9,-0.73288 -15.333333,-0.73288 H 37.023848 v -4.666666 -4.666667 h 22 c 20.379184,0 22,0.178633 22,2.424665 0,1.333566 -0.933862,5.569318 -2.075248,9.412783 -1.202172,4.048153 -4.11154,9.242051 -6.915394,12.34558 -2.662078,2.946604 -7.75838,6.836243 -11.325112,8.643643 -4.098216,2.076724 -9.527329,3.490556 -14.751273,3.84148 z m 86.109849,0.6359 c -2.77356,-0.01611 -7.44797,-1.121918 -10.38759,-2.45736 -2.93963,-1.335443 -7.26003,-4.609436 -9.6009,-7.275543 -2.34088,-2.666107 -4.65772,-6.988105 -5.14855,-9.604441 -0.49083,-2.616336 -0.62057,-8.035068 -0.28831,-12.041624 0.45604,-5.499247 1.57625,-8.506891 4.5706,-12.271534 2.18158,-2.742785 6.60886,-6.336882 9.8384,-7.986882 3.22955,-1.65 8.16403,-3 10.96554,-3 2.80149,0 7.31617,0.928637 10.03261,2.063637 2.71644,1.135 6.29718,3.339588 7.95718,4.899085 l 3.0182,2.835448 v -4.232418 c 0,-3.948162 0.31342,-4.232419 4.66666,-4.232419 h 4.66667 v 26 26 h -4.66667 c -4.35324,0 -4.66666,-0.284257 -4.66666,-4.232419 v -4.232418 l -3.0182,2.835448 c -1.66,1.559497 -5.24074,3.764085 -7.95718,4.899085 -2.71644,1.135 -7.20825,2.05046 -9.9818,2.034355 z m 2.29051,-9.311107 c 2.56667,-0.0016 6.58407,-1.172025 8.92756,-2.60094 2.34348,-1.428916 5.14909,-3.976673 6.23469,-5.661683 1.0856,-1.68501 2.33832,-5.163654 2.78383,-7.730321 0.55296,-3.185744 0.0553,-6.139156 -1.56803,-9.306756 -1.30793,-2.552048 -4.41678,-6.002048 -6.90856,-7.666667 -2.62549,-1.753941 -6.55878,-3.026577 -9.35413,-3.026577 -2.653,0 -6.86791,1.096359 -9.36647,2.436353 -2.49857,1.339995 -5.63921,4.480634 -6.9792,6.979199 -1.34,2.498564 -2.43636,6.361565 -2.43636,8.584448 0,2.222883 1.10089,6.132244 2.44641,8.687469 1.34553,2.555226 4.49553,5.694932 7,6.977126 2.50448,1.282193 6.65359,2.32995 9.22026,2.328349 z m 73.70949,9.2882 c -2.04022,-0.02871 -5.56038,-0.858067 -7.82257,-1.843027 -2.2622,-0.984961 -5.4122,-3.442392 -7,-5.460956 -1.58781,-2.018565 -2.88692,-4.789202 -2.88692,-6.156973 0,-1.930463 0.9962,-2.486855 4.45264,-2.486855 3.44236,0 4.79345,0.747983 5.95467,3.29655 0.82609,1.813102 3.13082,3.70536 5.12162,4.205017 2.24755,0.564099 4.91819,0.182088 7.04535,-1.007775 1.88415,-1.053932 3.62393,-3.295668 3.8662,-4.981636 0.24225,-1.685968 -0.57831,-4.191136 -1.82348,-5.567038 -1.24517,-1.375903 -5.21201,-3.48083 -8.81519,-4.677614 -3.60318,-1.196784 -8.33262,-3.674902 -10.50986,-5.506929 -3.30644,-2.782195 -3.95862,-4.316805 -3.95862,-9.314997 0,-4.800939 0.75118,-6.735212 3.79939,-9.783422 2.10221,-2.102217 6.03103,-4.218041 8.79528,-4.736618 2.84759,-0.534211 7.20325,-0.275898 10.12908,0.600704 2.82325,0.845866 6.36539,3.104414 7.87139,5.018994 1.50601,1.91458 2.7382,4.600139 2.7382,5.96791 0,1.943932 -0.9992,2.486854 -4.57682,2.486854 -3.40404,0 -4.79344,-0.682525 -5.4222,-2.663568 -0.46496,-1.464962 -2.26209,-3.019138 -3.99362,-3.453725 -1.73154,-0.434587 -4.39015,-0.395991 -5.90803,0.08577 -1.51789,0.481759 -3.15165,2.437167 -3.63057,4.34535 -0.66679,2.656672 -0.1595,4.045384 2.1655,5.928046 1.66995,1.352242 4.6104,2.836151 6.53434,3.297575 1.92393,0.461425 5.728,1.955775 8.45348,3.320776 2.72548,1.365003 5.57548,3.640417 6.33333,5.056479 0.75785,1.416056 1.37792,4.93318 1.37792,7.815828 0,3.357556 -1.03883,6.561829 -2.89053,8.915894 -1.5898,2.021095 -4.87052,4.502011 -7.29051,5.513146 -2.41999,1.011134 -6.06925,1.814941 -8.10947,1.786237 z m 108.18098,0.05219 c -3.52006,0 -8.2142,-1.37301 -12.69242,-3.71246 -5.75292,-3.005361 -7.81356,-5.066004 -10.81892,-10.818922 -2.34829,-4.495123 -3.7017,-9.132786 -3.68318,-12.620874 0.0161,-3.032925 1.12192,-7.919557 2.45736,-10.85918 1.33544,-2.939624 4.5708,-7.226109 7.18969,-9.525522 2.61888,-2.299414 6.98423,-4.914279 9.70075,-5.810812 2.71652,-0.896534 7.53136,-1.33788 10.69962,-0.98077 3.16828,0.357111 8.04714,1.830559 10.84191,3.274328 2.79476,1.44377 6.81541,5.07941 8.93477,8.0792 2.59374,3.671236 4.06572,7.6641 4.50298,12.214588 l 0.64958,6.760424 h -22.8033 -22.80331 l 1.38915,3.666666 c 0.76404,2.016667 2.6601,5.023408 4.21349,6.681648 1.55339,1.65824 5.15248,3.641883 7.99797,4.408095 3.64638,0.981865 6.46774,0.96602 9.55744,-0.05368 2.4111,-0.795735 5.77663,-2.929378 7.47896,-4.741428 2.08847,-2.223062 4.53739,-3.294635 7.5294,-3.294635 2.43884,0 4.43426,0.37918 4.43426,0.842621 0,0.463442 -1.22279,2.821127 -2.7173,5.2393 -1.6125,2.609086 -5.51368,5.790171 -9.59513,7.824046 -4.09589,2.041074 -9.13721,3.427366 -12.46377,3.427367 z m 0.73436,-32 c 15.89168,0 17.22508,-0.188892 16.4712,-2.333333 -0.45115,-1.283333 -2.33128,-3.969464 -4.17808,-5.96918 -1.84679,-1.999715 -5.43578,-4.321637 -7.97551,-5.159827 -3.45601,-1.140586 -5.89171,-1.142282 -9.68181,-0.0068 -2.78526,0.834484 -6.60832,3.352442 -8.4957,5.595462 -1.88738,2.243081 -3.4316,4.932244 -3.4316,5.975978 0,1.543824 3.22446,1.8977 17.2915,1.8977 z M 92.357181,77.682355 H 87.690514 V 42.349022 7.0156877 h 4.666667 4.66667 V 42.349022 77.682355 Z m 83.999999,0 h -4.66667 v -26 -26 h 4.66667 4.66667 v 26 26 z m 62.66667,0 h -4.66667 V 42.349022 7.0156877 h 4.66667 4.66666 V 19.80088 32.586071 l 4.03926,-3.398804 c 2.22158,-1.869341 6.1551,-3.795743 8.74117,-4.280889 2.58605,-0.485148 6.83185,-0.536447 9.43511,-0.114 2.60325,0.42245 6.15724,1.701165 7.89774,2.841589 1.74051,1.140425 4.21726,4.017848 5.50388,6.394276 1.85075,3.418365 2.43903,8.428235 2.81671,23.987443 l 0.47737,19.666669 h -4.78894 -4.78896 l -0.008,-14.333333 c -0.004,-7.883334 -0.62475,-16.556042 -1.37926,-19.272686 -0.7545,-2.716644 -2.93208,-6.166644 -4.83904,-7.666666 -2.05108,-1.613822 -5.44958,-2.727315 -8.3235,-2.727315 -2.67127,0 -6.25374,0.978416 -7.96104,2.174257 -1.7073,1.19584 -3.9408,4.17657 -4.96334,6.623842 -1.22528,2.932506 -1.85916,9.69206 -1.85916,19.825742 v 15.376159 z m 117.19944,0 h -4.53278 v -26 -26 h 4.66667 c 4.17617,0 4.66667,0.376781 4.66667,3.584748 v 3.584749 l 2.7947,-2.999762 c 1.53708,-1.64987 4.27615,-3.563007 6.0868,-4.251416 1.81066,-0.688408 4.15303,-1.251652 5.2053,-1.251652 1.28036,0 1.9132,1.4738 1.9132,4.455616 0,4.043762 -0.49348,4.603468 -5.33872,6.055137 -3.12511,0.936305 -6.30398,3.071665 -7.66667,5.149996 -1.83127,2.792968 -2.42763,7.190511 -2.79517,20.611529 l -0.46724,17.061055 z m -179.86611,-60 c -4.55556,0 -4.66667,-0.126987 -4.66667,-5.333333 0,-5.2063503 0.11107,-5.3333343 4.66667,-5.3333343 4.55556,0 4.66667,0.126987 4.66667,5.3333343 0,5.206349 -0.11107,5.333333 -4.66667,5.333333 z" />
    </g>
</svg>